<svg width="294" height="89" viewBox="0 0 294 89" fill="none" xmlns="http://www.w3.org/2000/svg">
<path d="M44.084 0C20.846 0 1.809 17.918 0 40.689L23.71 50.492C25.719 49.118 28.146 48.313 30.757 48.313C30.991 48.313 31.224 48.321 31.455 48.334L41.999 33.051C41.999 32.978 41.998 32.907 41.998 32.835C41.998 23.636 49.481 16.152 58.681 16.152C67.88 16.152 75.363 23.636 75.363 32.835C75.363 42.034 67.88 49.519 58.681 49.519C58.554 49.519 58.428 49.516 58.302 49.513L43.264 60.243C43.272 60.438 43.279 60.637 43.279 60.835C43.279 67.741 37.662 73.357 30.757 73.357C24.696 73.357 19.628 69.031 18.48 63.302L1.524 56.292C6.774 74.86 23.833 88.473 44.084 88.473C68.516 88.473 88.321 68.667 88.321 44.238C88.321 19.805 68.515 0 44.084 0Z" fill="#C5C3C0"/>
<path d="M27.7211 67.122L22.2871 64.877C23.2501 66.882 24.9161 68.561 27.1281 69.483C31.9101 71.475 37.4231 69.206 39.4161 64.42C40.3811 62.106 40.3871 59.551 39.4301 57.231C38.4751 54.91 36.6731 53.1 34.3561 52.134C32.0571 51.177 29.5941 51.212 27.4301 52.029L33.0431 54.35C36.5701 55.82 38.2381 59.87 36.7681 63.397C35.3011 66.925 31.2481 68.593 27.7211 67.122Z" fill="#C5C3C0"/>
<path d="M69.796 32.8348C69.796 26.7058 64.81 21.7188 58.68 21.7188C52.551 21.7188 47.564 26.7058 47.564 32.8348C47.564 38.9648 52.551 43.9497 58.68 43.9497C64.81 43.9487 69.796 38.9638 69.796 32.8348ZM50.348 32.8158C50.348 28.2038 54.087 24.4657 58.699 24.4657C63.311 24.4657 67.05 28.2038 67.05 32.8158C67.05 37.4277 63.311 41.1657 58.699 41.1657C54.087 41.1657 50.348 37.4268 50.348 32.8158Z" fill="#C5C3C0"/>
<path d="M135.564 30.2669L132.6 35.4769C130.317 33.8819 127.223 32.9219 124.522 32.9219C121.435 32.9219 119.525 34.1999 119.525 36.4889C119.525 39.2699 122.918 39.9169 127.961 41.7269C133.382 43.6439 136.498 45.8969 136.498 50.8619C136.498 57.6549 131.156 61.4699 123.478 61.4699C119.736 61.4699 115.222 60.5039 111.752 58.3929L113.914 52.6169C116.733 54.1059 120.105 54.9889 123.111 54.9889C127.163 54.9889 129.089 53.4939 129.089 51.2839C129.089 48.7549 126.152 47.9949 121.411 46.4249C116.008 44.6209 112.264 42.2539 112.264 36.7589C112.264 30.5619 117.227 27.0029 124.368 27.0029C129.345 27.0029 133.345 28.5799 135.564 30.2669Z" fill="#C5C3C0"/>
<path d="M158.734 33.5602V60.8992H151.755V33.5602H141.625V27.5742H168.834V33.5602H158.734Z" fill="#C5C3C0"/>
<path d="M183.546 33.5422V41.0512H196.902V47.0372H183.546V54.8582H199.042V60.8992H176.569V27.5742H199.042V33.5422H183.546Z" fill="#C5C3C0"/>
<path d="M214.619 54.4292L212.413 60.9002H205.097L217.592 27.5752H224.617L237.465 60.8992H229.902L227.648 54.4282L214.619 54.4292ZM221.065 35.5242L216.514 48.8672H225.71L221.065 35.5242Z" fill="#C5C3C0"/>
<path d="M273.282 40.4552L264.162 59.9282H260.224L251.252 40.6292V60.8992H244.569V27.5742H251.237L262.437 51.6302L273.239 27.5742H279.965V60.8992H273.283L273.282 40.4552Z" fill="#C5C3C0"/>
<path d="M293.457 31.7776C293.457 34.6416 291.311 36.4266 288.848 36.4266C286.376 36.4266 284.225 34.6416 284.225 31.7776C284.225 28.9146 286.376 27.1416 288.848 27.1416C291.312 27.1416 293.457 28.9146 293.457 31.7776ZM285 31.7776C285 34.1736 286.726 35.6786 288.848 35.6786C290.962 35.6786 292.681 34.1736 292.681 31.7776C292.681 29.3746 290.962 27.8926 288.848 27.8926C286.732 27.8926 285 29.3926 285 31.7776ZM288.912 29.4086C290.107 29.4086 290.509 30.0406 290.509 30.7236C290.509 31.3496 290.138 31.7696 289.686 31.9836L290.757 33.9906H289.88L288.977 32.2116H288.046V33.9906H287.316V29.4086H288.912ZM288.053 31.5406H288.867C289.394 31.5406 289.705 31.2096 289.705 30.7936C289.705 30.3736 289.482 30.1036 288.865 30.1036H288.052V31.5406H288.053Z" fill="#C5C3C0"/>
</svg>
